<?xml version="1.0" encoding="UTF-8"?>
<svg id="Layer_2" xmlns="http://www.w3.org/2000/svg" version="1.1" viewBox="0 0 2000 1500">
  <!-- Generator: Adobe Illustrator 29.5.0, SVG Export Plug-In . SVG Version: 2.1.0 Build 137)  -->
  <polygon points="-.00002 1164.58634 2000.00002 992.91839 2000.00002 0 -.00002 0 -.00002 1164.58634" style="fill: #285a66;"/>
  <rect x="593.50813" y="34.9868" width="481.53848" height="1015.81184" style="fill: #87cdf1;"/>
  <rect x="1175.70453" y="34.9868" width="756.98013" height="1015.81184" style="fill: #87cdf1;"/>
  <path d="M1562.40283,557.65192c-.55225,0-1-.44727-1-1V48.38243c0-.55273.44775-1,1-1s1,.44727,1,1v508.2695c0,.55273-.44775,1-1,1Z" style="fill: #282833;"/>
  <polygon points="1931.04442 0 1908.62547 0 1216.1804 0 1184.80516 0 1158.98338 0 1158.98338 1194.84806 1216.1804 1194.84806 1216.1804 57.19677 1908.62547 57.19677 1908.62547 1194.84806 1965.82249 1194.84806 1965.82249 0 1931.04442 0" style="fill: #152d30;"/>
  <path d="M1096.49534,0h-547.62524v1194.84806l57.19702-319.79685h206.91187v163.2119h31.25562v-163.2119h208.25415v319.79685h57.19678V0h-13.19019ZM812.97899,843.79584h-206.91187v-240.16112h206.91187v240.16112ZM812.97899,572.37887h-206.91187v-240.16112h206.91187v240.16112ZM812.97899,300.96238h-206.91187V57.19677h206.91187v243.76561ZM1052.48875,843.79584h-208.25415v-240.16112h208.25415v240.16112ZM1052.48875,572.37887h-208.25415v-240.16112h208.25415v240.16112ZM1052.48875,300.96238h-208.25415V57.19677h208.25415v243.76561Z" style="fill: #152d30;"/>
  <polygon points="451.49791 0 -.00002 0 -.00002 1164.58634 451.49791 1123.37785 451.49791 0" style="fill: #18454c;"/>
  <path d="M1020.60692,740.79585l-12.4766,22.99997s85.95332,102.47146,124.46487,77.18916,52.26534-65.92187,52.26534-65.92187c0,0-71.96321-87.96485-164.25361-34.26727Z" style="fill: #fc9da9;"/>
  <path d="M1250.34999,590.51261h332.76746c20.65453-15.05743,10.70976-42.91366,10.70976-42.91366,20.65453-18.82178,5.39248-40.65505,5.39248-40.65505,14.57227-18.82178-4.62749-30.11485-4.62749-30.11485,15.29965-24.09188-12.23972-47.43089-12.23972-47.43089,8.41481-26.35049-11.16566-31.87155-11.16566-31.87155,3.36901-23.08805-11.52883-35.13399-11.52883-35.13399,5.09988-26.09954-18.35958-34.13016-18.35958-34.13016,1.01998-29.11102-23.31234-34.13016-23.31234-34.13016-6.99271-29.11102-42.98616-30.11485-42.98616-30.11485-9.17979-21.0804-31.4878-19.83046-31.4878-19.83046-15.29965-17.06508-39.1456-2.75568-39.1456-2.75568,0,0-20.90953-12.04594-34.93421,10.03828,0,0-24.22445-16.31221-42.32904,11.04211,0,0-32.89425,3.76436-28.30436,33.12634,0,0-31.36429-.25096-26.00941,32.62442,0,0-24.47945,11.04211-15.29965,35.13399,0,0-22.1845,12.04594-12.23972,32.37346,0,0-17.5946,6.77584-10.70976,36.13782,0,0-18.35958,10.5402-9.17979,38.39643,0,0-13.55549,12.04594-2.57034,33.87921,0,0-19.57458,12.04594-4.29471,42.91366,0,0-15.31944,21.33135,6.86506,43.41558h24.98943Z" style="fill: #f3375c;"/>
  <path d="M1695.19237,572.19527c-52.2085-43.81933-104.04663-61.02929-145.40674-69.58593h-.00024c-165.87842,124.30126-257.37476.0498-257.37476.0498-30.43091,5.06592-68.82471,9.74853-108.82715,30.50928-88.18604,45.76757-162.97656,207.62743-162.97656,207.62743,114.97656-37.95361,158.51147,41.30224,158.51147,41.30224l26.79053,219.59129h377.22632l47.79614-213.45165,102.1394,83.33642c119.29858-40.37939,133.11597-136.46483,133.11597-136.46483,0,0-74.61499-82.02197-170.99438-162.91405Z" style="fill: #286df9;"/>
  <path d="M1465.05963,488.61032c-30.23242-12.46533-26.69775-63.7207-26.69775-63.7207,0,0-15.01716-10.06201-37.99665-10.2666-20.9895-.18701-33.08102,7.84961-35.21237,39.28955-2.4397,35.98535-36.08768,42.64453-72.74222,48.74658,5.66528,20.99365,28.53174,79.20361,107.95459,79.20361,79.48633,0,132.81982-58.30273,149.42017-79.25341-34.99243-7.23975-70.87029-8.28613-84.72576-13.99902Z" style="fill: #fc9da9;"/>
  <path d="M1471.95162,371.88133c-.67384-1.3302-1.35966-2.46493-2.05222-3.43659-50.88509-.40878-94.03283-50.78262-94.03283-50.78262-11.24529,9.18242-36.05604,24.00125-45.19307,31.62356-2.92045,2.43609-3.647,40.6617,2.75819,66.83279,6.60132,26.97239,25.94294,63.59224,53.76001,63.18659,38.33202-.55864,70.13792-52.05569,70.38637-78.49803,0,0,23.40181-11.09879,14.37355-28.9257Z" style="fill: #fc9da9;"/>
  <path d="M1361.37074,428.20464s25.35994-3.43785,46.82612-.01109c0,0-10.02155,20.15459-27.42588,19.01146-15.46507-1.01576-19.40024-19.00038-19.40024-19.00038Z" style="fill: #210b09;"/>
  <path d="M1382.6577,432.89304s-8.46899,2.24219-12.37402,10.20068c2.69531,2.19482,6.13452,3.8252,10.4873,4.11133,11.18408.73437,19.31274-7.32178,23.69946-13.17676l.00024-.00049c-10.95435-3.12109-21.81299-1.13477-21.81299-1.13477Z" style="fill: #f3375c;"/>
  <path d="M1439.77222,448.78914c-.14795-.88916-.28247-1.76807-.40442-2.63525-16.80017,23.81738-37.54041,32.88965-51.8009,33.09765-6.47656.10254-12.83398-1.89746-18.91016-5.91992-.45947-.30566-1.08154-.17969-1.38574.28223-.30469.45996-.17871,1.08105.28223,1.38574,6.27246,4.15234,12.85498,6.25488,19.57471,6.25488.15576,0,.3125-.00098.46826-.00293,12.30859-.17969,25.04297-5.63574,36.8252-15.77832,5.48401-4.7207,10.68896-10.40381,15.35083-16.68408Z" style="fill: #282833;"/>
  <path d="M1458.61768,391.35506c-.55225,0-1,.44727-1,1v8.43262c.14062-.06787.88379-.43359,2-1.0874v-7.34521c0-.55273-.44775-1-1-1Z" style="fill: #282833;"/>
  <polygon points="206.4055 992.91839 -.00002 1164.58634 -.00002 1499.9999 1999.99998 1499.9999 1999.99998 992.91839 206.4055 992.91839" style="fill: #f4f4f4;"/>
  <polygon points="206.4055 992.91839 -.00002 1164.58634 -.00002 1499.9999 1999.99998 1499.9999 1999.99998 992.91839 206.4055 992.91839" style="fill: #f4f4f4;"/>
  <polygon points="895.3091 1459.8294 523.53789 1459.8294 750.53814 1089.98823 1079.93763 1089.98823 895.3091 1459.8294" style="fill: #e2e2e2;"/>
  <polygon points="829.19654 1402.93005 457.42533 1402.93005 684.42559 1033.08888 1013.82507 1033.08888 829.19654 1402.93005" style="fill: #fff;"/>
  <path d="M319.78306,1057.72657s14.86259-23.29499,40.17195-23.26842c25.30936.02657,11.3559,58.63109,11.3559,58.63109l-51.52784-35.36267Z" style="fill: #ffb747;"/>
  <path d="M356.33447,1070.84036c-.10059,0-.20215-.01465-.30273-.04687l-16.11523-5.1084c-.52637-.16699-.81787-.72852-.65088-1.25488.1665-.52832.73242-.81738,1.25537-.65137l16.11523,5.1084c.52637.16699.81787.72852.65088,1.25488-.13477.42676-.52881.69824-.95264.69824Z" style="fill: #282833;"/>
  <polygon points="1240.85081 669.67085 1240.85081 944.41741 1417.29222 932.50042 1417.29222 669.67085 1240.85081 669.67085" style="fill: #ffe1bd;"/>
  <path d="M1417.29222,702.10298h-176.44141v36c0,7.75781,39.4978,14.04639,88.2207,14.04639s88.2207-6.28857,88.2207-14.04639v-36Z" style="fill: #936947;"/>
  <path d="M1855.8264,735.10932c-40.13599,91.99169-123.59302,119.82568-123.59302,119.82568l60.27905,51.34863-85.25439,5.86133c-57.74561,3.97021-115.30298-10.52978-164.12769-41.61816-11.46826-7.30176-20.84937-12.80469-24.66382-13.91699-13.39526-3.90723-55.81396-10.60498-75.34888-2.79102-19.53467,7.81396-54.69727,51.90722-49.67432,64.74414,1.98511,5.07275,5.62622,7.52539,9.30444,8.64307-1.52368,4.87012-2.2749,9.39062-2.04858,13.12451.61548,10.15527,6.99829,14.36621,12.60303,16.10596-.38989,4.70361.16162,8.96728,1.90869,12.35889,5.427,10.53467,12.12842,9.7456,16.87402,7.14258-.5813,8.33398,2.57764,14.3291,8.24219,16.29932,12.83716,4.46533,36.83716-27.90674,36.83716-27.90674l45.11621,7.62793s51.85913,34.23193,142.24829,54.71045c61.90356,14.02441,126.04224,15.27246,188.51172,4.03369.25781-.04639.51587-.09326.77417-.13965,181.62573-32.7749,112.65454-162.44579,2.01172-295.45359Z" style="fill: #fc9da9;"/>
  <path d="M1789.46409,657.18697c-63.5415,19.49658-110.07397,82.54199-110.07397,157.30663,0,4.62109.18726,9.19482.53589,13.71924l53.14478,43.36133c119.29858-40.37939,133.11597-136.46483,133.11597-136.46483,0,0-30.08862-33.07275-76.72266-77.92236Z" style="fill: #286df9;"/>
  <path d="M1845.49072,897.87504l-54.87207,6.39551c-.12354.01416-.23547.05664-.3396.11035l2.00562,1.7085,53.4375-6.22803c.54883-.06348.94141-.56055.87744-1.10937-.06348-.54883-.56836-.94238-1.10889-.87695Z" style="fill: #282833;"/>
  <path d="M1121.24636,823.70267s20.46357-33.49961,47.43469-47.41129c7.09769-3.66098,15.82049-3.06273,21.98377,2.01603,5.41859,4.46511,8.62789,12.093-.2093,24.74413-11.50087,16.4644-28.46506,47.44176-38.51155,73.67427s-29.58134,68.65102-69.20916,77.0231c-39.62783,8.37208-53.02315-13.39532-53.02315-13.39532,0,0-35.16272,4.46511-53.02315-13.95346-17.86043-18.41857,0-37.39527,0-37.39527,0,0-22.32554-16.18601-19.53484-32.37203s19.53484-17.86043,19.53484-17.86043c0,0-17.86043-18.9767-10.60463-32.37203s22.32554-15.06974,22.32554-15.06974c0,0-21.7674-32.37203-17.30229-50.79059s26.79064-19.53484,37.39527,0c10.60463,19.53484,34.60458,48.55804,54.69756,61.39522,20.09298,12.83718,32.93017,8.37208,58.04639,21.7674Z" style="fill: #fc9da9;"/>
  <path d="M1121.0046,823.72013c-.15869,0-.31982-.03809-.46973-.11719-12.17139-6.49219-21.28027-8.71387-30.08936-10.8623-9.06006-2.20996-17.61816-4.29687-28.0249-10.94531-11.02539-7.04394-24.39307-19.79785-36.67578-34.99121-.34717-.42969-.28027-1.05957.14893-1.40625.4292-.34863,1.05908-.28027,1.40674.14844,12.15234,15.0332,25.3457,27.63086,36.19727,34.56347,10.12646,6.46973,18.52734,8.51855,27.42139,10.68848,8.32471,2.0293,17.73486,4.3252,29.73535,10.60547,3.3252-5.18848,22.74072-34.30273,47.32715-46.9834,6.34863-3.27441,13.76221-3.29004,19.83105-.04297.4873.26074.67041.86621.41016,1.35352-.26025.48633-.86816.66895-1.35352.41016-5.48877-2.9375-12.20752-2.91602-17.9707.05664-26.40527,13.61914-46.83643,46.71093-47.03955,47.04394-.18799.30664-.5166.47852-.85449.47852Z" style="fill: #282833;"/>
  <path d="M1089.05957,896.14409c-.47607,0-.89795-.34082-.98389-.82617-4.67773-26.45898,4.45801-44.76269,12.9458-55.458,9.19238-11.58398,19.34375-16.83105,19.77148-17.04883.49121-.24902,1.09326-.05469,1.34424.4375s.05518,1.09375-.43652,1.34473c-.4043.20703-40.34766,21.21094-31.65527,70.37695.09619.54395-.26709,1.0625-.81055,1.1582-.05908.01074-.11768.01562-.17529.01562Z" style="fill: #282833;"/>
  <path d="M1029.72485,940.37455c.04663.07422.46338.72119,1.3042,1.71777,5.79468-1.77197,10.25598-5.05664,12.65112-9.35644,2.1958-3.94238,2.5791-8.47266,1.10889-13.10059-2.5658-8.07227-11.6626-12.64648-16.6853-14.61133,2.66101-.86182,5.0022-2.16406,7.01001-3.91699,2.79346-2.43848,4.2915-6.08887,4.33154-10.55566.0658-7.32324-3.77539-16.28613-9.28369-21.94873.98291-.42139,1.95325-.93994,2.90625-1.57373,5.07031-3.37207,8.11475-8.85644,8.35254-15.04687.24268-6.30664-2.56104-12.37695-7.49854-16.23926-18.1507-14.19385-41.19708-39.57812-45.53271-44.40966-.09772.01123-.93903.1167-2.27118.42773.02106.02979.02911.06494.05389.09326.26123.29492,26.35449,29.69629,46.51758,45.46484,4.43359,3.4668,6.9502,8.91992,6.73242,14.58594-.21289,5.54102-2.93213,10.44629-7.46143,13.45801-3.22998,2.14746-6.64795,2.91699-10.16504,2.28516-16.27417-2.92529-31.90936-16.12353-45.16913-28.94287.03876.04199.06226.06738.06226.06738,0,0-.93945.09668-2.40094.45166,13.67603,13.31103,29.96173,27.30224,47.1543,30.39258.91992.16504,1.8335.24805,2.73926.24805,1.30737,0,2.59692-.18262,3.86743-.52637,5.44446,5.17578,9.45972,14.17383,9.39673,21.19531-.03516,3.93457-1.26221,6.98535-3.64697,9.06738-2.64453,2.30811-5.85107,3.63965-9.38184,4.24268-.06567.00342-.12671.01465-.1897.03076-17.72278,2.88916-43.44653-12.3501-47.54132-14.86621-.01123.01172-.52765.56689-1.28796,1.55664,1.93689,1.2041,11.44226,6.9624,22.5976,11.11816,8.22754,3.06445,15.40332,4.59668,21.4873,4.59668,1.76385,0,3.42719-.14111,5.00659-.39844,2.11414.64697,15.43958,5.06445,18.3938,14.35937,1.29932,4.08887.9707,8.07324-.94971,11.52246-2.23584,4.01367-6.56445,7.04443-12.20825,8.61133Z" style="fill: #282833;"/>
  <path d="M1639.12988,759.91363c.11621-.54004-.22705-1.07227-.7666-1.18848-.54443-.11719-1.07275.22656-1.18848.7666l-6.20605,28.77637,1.73999,1.41992,6.42114-29.77441Z" style="fill: #282833;"/>
  <path d="M1463.92015,872.08148c-.37207-16.37891-8.46997-22.71631-13.20923-27.5415.02246-.37646.3584-9.66748.37207-10.04004.47803-13.06348-4.02344-22.10303-9.32812-28.16894-6.14258-7.0249-15.1311-10.90088-24.46265-10.90088v26.46387c-4.24683,10.84961-9.98999,23.51172-17.18604,34.93164-17.11621,27.1626-106.41821,79.99999-122.41821,73.30224-16-6.69775-36.83716-27.90722-36.83716-27.90722v-100.07958s-23.34888,4.26611-31.16284,17.05517c-7.81396,12.78906-20.76099,78.28222-24.82739,110.93163-4.06665,32.64892,21.04834,106.54491,21.04834,106.54491l-130.8623,463.32712h252.3457l21.55127-433.50046s88.18579-61.39502,99.34863-82.60449c7.1394-13.56445,5.146-25.52197,2.78198-32.38574,5.32251-7.59131,8.98804-14.80029,9.86914-20.63721,1.99414-13.21142-2.52222-25.9126-5.72241-32.86426,7.21069-9.375,8.86377-18.68603,8.69922-25.92627Z" style="fill: #fc9da9;"/>
  <path d="M1457.72119,898.13627c5.8833-7.84668,8.75635-16.61621,8.54102-26.07715-.2384-10.49609-3.60706-16.99072-7.16235-21.49609-.81189.06494-1.61206.14062-2.40234.22559,3.6333,4.27783,7.32153,10.57666,7.56567,21.31543.2085,9.18652-2.64844,17.69629-8.49219,25.29394-.22656.29395-.27148.69043-.11572,1.02734,2.95752,6.42578,7.62402,19.16699,5.64209,32.29687-.80273,5.31836-4.15674,12.30762-9.69922,20.21289-.18408.2627-.23096.59668-.12646.89941,2.50928,7.28711,4.07422,18.68262-2.72168,31.59472-1.3186,2.50488-3.68066,5.62256-6.91272,9.14404.87512.11377,1.79016.08643,2.73694-.06348,2.70483-3.08057,4.7345-5.84814,5.94531-8.14893,6.98096-13.26269,5.5459-25.01855,3.00635-32.69336,5.62305-8.0957,8.90234-15.04004,9.74902-20.64648,2.00439-13.2793-2.49854-26.09668-5.55371-32.88476Z" style="fill: #282833;"/>
  <path d="M1373.63916,935.38236c-.3252,0-.64404-.1582-.83643-.4502-.30371-.46094-.17578-1.08105.28564-1.38477,32.5752-21.43848,51.68359-44.57129,61.97705-60.20214,11.15332-16.93652,14.64941-28.95996,14.68359-29.0791.15039-.53125.70312-.83594,1.23535-.68848.53076.15137.83936.7041.68848,1.23535-.13721.48437-14.48242,48.94238-77.48486,90.40429-.16943.1123-.36035.16504-.54883.16504Z" style="fill: #282833;"/>
  <path d="M1383.73437,967.97611c-.36572,0-.71826-.20117-.89404-.5498-.24854-.49316-.05029-1.09473.44287-1.34277,51.80762-26.11914,72.17725-68.08398,72.37695-68.50488.23633-.49902.8335-.70996,1.33203-.47461.49902.23633.71143.83301.47461,1.33203-.20264.42676-20.87061,43.00879-73.2832,69.43261-.14453.07324-.29785.10742-.44922.10742Z" style="fill: #282833;"/>
  <path d="M1391.31299,999.17533c-.36963,0-.72412-.20508-.89844-.55859-.24365-.49609-.03955-1.09473.45605-1.33887,30.5293-15.01562,60.52441-46.14746,60.82422-46.45996.38232-.39844,1.01514-.41211,1.41357-.03125.39893.38184.41309,1.01562.03076,1.41406-.30176.31543-30.53467,31.69824-61.38574,46.87207-.14209.06934-.29248.10254-.44043.10254Z" style="fill: #282833;"/>
  <path d="M1460.53711,938.07377c-.35742,0-.70361-.19238-.8833-.5293-.25977-.4873-.07617-1.09277.41016-1.35254.69922-.37305,17.37061-9.07129,39.82373-2.77246.53174.14941.8418.70117.69287,1.2334-.1499.53027-.70117.84277-1.23291.69238-21.64795-6.07715-38.17676,2.52344-38.34131,2.61035-.1499.08008-.31055.11816-.46924.11816Z" style="fill: #282833;"/>
  <path d="M1497.66504,906.63041c-.06543,0-.13135-.00586-.19824-.01953-23.67773-4.76074-37.43018-.08496-37.56641-.03711-.51953.18066-1.0918-.0918-1.2749-.61133-.18311-.52051.08936-1.09082.60986-1.27539.57422-.2041,14.354-4.91797,38.62598-.03711.5415.10937.89209.63574.7832,1.17773-.0957.47461-.5127.80273-.97949.80273Z" style="fill: #282833;"/>
  <path d="M1494.59521,879.67729c-.05811,0-.11719-.00488-.17676-.01562-16.98828-3.0332-29.09668-2.36719-29.2168-2.36035-.53662.02148-1.02441-.38867-1.05664-.93945-.03271-.55078.3877-1.02441.93945-1.05664.12207-.00879,12.46582-.68652,29.68555,2.3877.54395.09668.90576.61621.80859,1.16016-.08643.48437-.50781.82422-.9834.82422Z" style="fill: #282833;"/>
  <path d="M1417.29222,618.74361c0-7.75781-39.4978-14.04639-88.2207-14.04639s-88.2207,6.28857-88.2207,14.04639v50.92724h176.44141v-50.92724Z" style="fill: #fceede;"/>
  <path d="M1406.08275,504.15231c-2.79517-.72705-5.64941.94189-6.38013,3.73486l-31.46802,120.29833h10.80664l30.77612-117.65282c.73047-2.79297-.94165-5.64941-3.73462-6.38037Z" style="fill: #282833;"/>
  <path d="M1417.29222,669.67085h-176.44141v36c0,7.75781,39.4978,14.04639,88.2207,14.04639s88.2207-6.28857,88.2207-14.04639v-36Z" style="fill: #e5ac77;"/>
  <ellipse cx="1329.07155" cy="669.67095" rx="88.22073" ry="14.04648" style="fill: #f9cea0;"/>
  <path d="M1329.07152,683.71724c46.93066,0,85.29565-5.83447,88.05542-13.19629.32812-1.73193.50684-3.51709.50684-5.34424,0-14.31006-10.52808-26.15967-24.26074-28.22949.60449-2.3125.92871-4.73877.92871-7.24023,0-15.76855-12.78296-28.55127-28.55127-28.55127-1.52368,0-3.01855.12207-4.47778.35205.00122-.11768.00903-.23389.00903-.35205,0-15.76855-12.78296-28.55127-28.55127-28.55127s-28.55127,12.78271-28.55127,28.55127c0,.11816.00781.23437.00903.35205-1.45923-.22998-2.9541-.35205-4.47778-.35205-15.76831,0-28.55127,12.78271-28.55127,28.55127,0,2.50146.32422,4.92773.92871,7.24023-13.73267,2.06982-24.26074,13.91943-24.26074,28.22949,0,3.78418.74292,7.39307,2.08008,10.69824,14.38965,4.646,44.43018,7.84228,79.16431,7.84228Z" style="fill: #fff;"/>
  <circle cx="1274.24767" cy="624.01796" r="24.2354" style="fill: #d35757;"/>
  <circle cx="1306.35317" cy="608.72509" r="24.2354" style="fill: #d35757;"/>
  <path d="M1329.07129,633.78961c-36.99023,0-70.44482-3.73437-83.24756-9.29199-.50635-.21973-.73877-.80859-.51904-1.31543.21924-.50781.80762-.73926,1.31592-.51855,12.57422,5.45801,45.70898,9.12598,82.45068,9.12598s69.87695-3.66797,82.45117-9.12598c.50732-.21973,1.09619.01074,1.31592.51855.21973.50684-.0127,1.0957-.51904,1.31543-12.80273,5.55762-46.25732,9.29199-83.24805,9.29199Z" style="fill: #282833;"/>
  <path d="M1270.23975,605.69684c-.0127,0-.02588,0-.03906-.00098-.55176-.02148-.98193-.48535-.96045-1.03711,1.38721-35.99121,11.87158-57.75781,11.97705-57.97363.24365-.49414.84375-.69922,1.33789-.45703.49561.24219.70068.8418.45801,1.33691-.104.21289-10.40479,21.63672-11.7749,57.16992-.02051.53906-.46387.96191-.99854.96191Z" style="fill: #282833;"/>
  <path d="M1300.37988,592.21832c-.33105,0-.65479-.16406-.84521-.46387l-21.93604-34.5664c-.2959-.4668-.15771-1.08496.30859-1.38086s1.0835-.15723,1.37988.30859l21.93604,34.5664c.2959.4668.15771,1.08496-.30859,1.38086-.16602.10547-.35156.15527-.53467.15527Z" style="fill: #282833;"/>
  <path d="M1298.31348,622.16949c-.49951,0-.93164-.37402-.9917-.88281-.74951-6.33496-3.96484-11.94531-9.05371-15.79785-.44043-.33301-.52734-.95996-.19385-1.40039.33301-.44043.9585-.52734,1.40088-.19336,5.52686,4.18262,9.01855,10.27539,9.83301,17.15723.06494.54785-.32715,1.04492-.87549,1.11035-.04004.00488-.07959.00684-.11914.00684Z" style="fill: #282833;"/>
  <path d="M655.17088,823.70258c-4.46533-100.16601-43.53491-163.27538-43.53491-163.27538-240.55762-20.65088-248.09253,285.48777-248.09253,329.85984s-15.90698,108.83691-15.90698,108.83691c111.34863,65.30224,237.76709,0,237.76709,0-5.60718-30.58398-11.42114-75.65087-15.11157-106.22753,22.5022,13.78516,44.45044,16.57422,58.64624,11.34424,21.20923-7.81396,25.11646-55.81396,25.11646-55.81396-35.72095.55811-49.67432-37.95361-49.67432-37.95361,27.34863,2.79102,53.58105-2.23242,53.58105-2.23242l1.67456-26.79053c17.86035,1.11621,37.39526-26.79053,37.39526-26.79053-16.74414-7.25586-41.86035-30.95703-41.86035-30.95703Z" style="fill: #fc9da9;"/>
  <path d="M497.77577,832.33398s-26.23251-48.90527-48.55804-25.28984c-22.32554,23.61543,8.93021,115.74793,43.5348,88.10025,0,0-30.88366,121.9334-76.65101,121.9334h-41.02442c-9.4329,0-18.60686-3.02324-26.21549-8.59893-35.26818-25.84491-131.75989-108.82339-116.20158-233.63313,14.25293-114.33788,66.34311-83.00764,66.34311-83.00764,0,0-6.69766-138.17346,152.37179-136.49904,55.52969.58452,92.83995-5.49764,117.88415-13.66316,48.81445-15.91568,100.25786,18.51163,102.67655,69.79817,1.15762,24.54649-9.50902,46.7665-44.11361,58.1969-103.81374,34.2912-137.30205,53.09429-110.51141,149.26771l-19.53484,13.39532Z" style="fill: #210b09;"/>
  <path d="M570.30151,992.97513c-33.22394-24.7959-51.90271-59.66601-52.09058-60.02148-.25732-.48828-.86279-.67676-1.35156-.41699-.48828.25781-.6748.8623-.41699,1.35059.19312.36572,19.63281,36.69092,54.19043,61.82421-.11224-.92432-.22266-1.83643-.3313-2.73633Z" style="fill: #282833;"/>
  <path d="M686.5729,1140.08221s156.84823,25.17109,215.88919,47.33982c138.15413,51.8742,252.47514,312.57786,252.47514,312.57786H.00002v-263.46909s71.59056-100.46491,278.68281-106.29637c129.74298-3.6534,407.89008,9.84777,407.89008,9.84777Z" style="fill: #ffb747;"/>
  <path d="M319.78306,1057.72657s83.8721,41.8211,208.19067,22.27795c124.31856-19.54315,115.29013,26.68145,158.59918,60.07769,0,0-286.63187,94.5493-407.89008-9.84777l41.10024-72.50786Z" style="fill: #ffb747;"/>
  <path d="M450.24268,1180.34621c-63.3125,0-114.09473-11.46289-151.36279-34.22363-.47168-.28809-.62012-.90332-.33252-1.375.2876-.4707.90381-.62012,1.37451-.33203,45.12891,27.56152,110.37012,38.41699,193.91797,32.25781,69.28467-5.10547,134.1709-20.93848,166.68262-29.92187.53223-.15137,1.08252.16504,1.22998.69727.14697.53223-.16504,1.08301-.69775,1.23047-32.58203,9.00293-97.6123,24.87109-167.06787,29.98926-15.18066,1.11816-29.77197,1.67773-43.74414,1.67773Z" style="fill: #282833;"/>
  <path d="M857.83887,1301.5757c-.52441-.18652-1.0918.0918-1.2749.6123-.29681.84717-29.23529,84.64111-31.23395,197.812h2.00049c1.99762-112.81103,30.82483-196.30565,31.12115-197.14989.18262-.52148-.0918-1.0918-.61279-1.27441Z" style="fill: #282833;"/>
  <path d="M1651.18018,303.51717c-.25,0-.5-.09277-.69385-.28027-.39795-.38281-.40967-1.01562-.02637-1.41406,57.41455-59.58105,166.55225-173.01366,168.65918-175.85936.28271-.47461.88135-.60645,1.35498-.32617.4751.28223.61572.91992.33398,1.39453-1.34668,2.26758-151.76123,158.38573-168.90771,176.17968-.19629.20312-.45801.30566-.72021.30566Z" style="fill: #fafafc;"/>
  <path d="M1663.39307,398.09236c-.25,0-.5-.09277-.69385-.28027-.39795-.38281-.40967-1.01562-.02637-1.41406,24.39209-25.3125,70.84863-73.5957,72.0835-75.15527.28223-.47461.87012-.59277,1.34473-.31055s.60498.93457.32324,1.40918c-.58154.97852-55.49463,57.99414-72.31104,75.44531-.19629.20312-.45801.30566-.72021.30566Z" style="fill: #fafafc;"/>
  <path d="M657.66846,453.47322c-.25,0-.5-.09277-.69385-.28027-.39795-.38281-.40967-1.01562-.02637-1.41406,9.6665-10.03125,34.87061-36.21777,35.87158-37.39648.30225-.4082.86768-.5293,1.31396-.2627.47461.28223.63037.89551.34814,1.37012-.22656.38184-12.37012,13.05859-36.09326,37.67773-.19629.20312-.45801.30566-.72021.30566Z" style="fill: #fafafc;"/>
  <path d="M905.88477,689.41851c-.25,0-.5-.09277-.69385-.28027-.39795-.38281-.40967-1.01562-.02637-1.41406,9.6665-10.03125,34.87109-36.21875,35.87207-37.39746.30176-.4082.8667-.5293,1.31396-.2627.47461.28223.63037.89551.34814,1.37012-.22656.38184-12.37061,13.05859-36.09375,37.67871-.19629.20312-.45801.30566-.72021.30566Z" style="fill: #fafafc;"/>
  <path d="M701.13818,491.10407c-.25,0-.5-.09277-.69385-.28027-.39795-.38281-.40967-1.01562-.02637-1.41406,26.45898-27.45703,76.84082-79.82128,78.14062-81.4707.28125-.47559.86914-.59473,1.3457-.31152.47461.28223.60547.93262.32324,1.40723-.625,1.05176-60.14258,62.84863-78.36914,81.76367-.19629.20312-.45801.30566-.72021.30566Z" style="fill: #fafafc;"/>
  <path d="M1246.22215,235.81541c0-56.49658-45.79932-102.29589-102.2959-102.29589h-355.05762c-56.49634,0-102.29565,45.79931-102.29565,102.29589s45.79932,102.29638,102.29565,102.29638h339.64844c22.17114,32.63965,87.66333,28.96728,87.66333,28.96728-17.09473-9.1709-24.98071-24.91894-28.56689-38.7456,34.64185-16.38721,58.60864-51.65136,58.60864-92.51806Z" style="fill: #fff;"/>
  <polygon points="802.38218 193.78281 814.34279 215.68941 838.87324 220.29511 821.73485 238.43983 824.93489 263.19291 802.38218 252.50036 779.82947 263.19291 783.02952 238.43983 765.89113 220.29511 790.42158 215.68941 802.38218 193.78281" style="fill: #ffb747;"/>
  <polygon points="911.72577 196.22541 923.68638 218.13201 948.21682 222.73771 931.07844 240.88244 934.27848 265.63552 911.72577 254.94297 889.17306 265.63552 892.3731 240.88244 875.23472 222.73771 899.76517 218.13201 911.72577 196.22541" style="fill: #ffb747;"/>
  <polygon points="1021.06936 197.44672 1033.02997 219.35332 1057.56041 223.95902 1040.42203 242.10374 1043.62207 266.85682 1021.06936 256.16427 998.51665 266.85682 1001.71669 242.10374 984.57831 223.95902 1009.10875 219.35332 1021.06936 197.44672" style="fill: #ffb747;"/>
  <polygon points="1130.41295 195.00411 1142.37355 216.91071 1166.904 221.51641 1149.76562 239.66113 1152.96566 264.41421 1130.41295 253.72167 1107.86024 264.41421 1111.06028 239.66113 1093.9219 221.51641 1118.45234 216.91071 1130.41295 195.00411" style="fill: #ffb747;"/>
  <rect x="1642.88399" y="425.30635" width="223.30276" height="84.99966" style="fill: #5eb9dd;"/>
  <ellipse cx="626.70574" cy="814.19448" rx="9.76742" ry="11.99997" style="fill: #210b09;"/>
  <path d="M579.8125,790.88628c-.64941,0-1.29834-.25195-1.78809-.75293-.96484-.9873-.94678-2.57031.04053-3.53516,23.66748-23.13086,49.48389-24.47949,50.57129-24.52539,1.38086-.01562,2.54541,1.01367,2.60352,2.39258.05859,1.37793-1.01025,2.54297-2.38818,2.60352h0c-.24805.01074-25.05762,1.375-47.2915,23.10547-.48633.47559-1.11719.71191-1.74756.71191Z" style="fill: #282833;"/>
  <path d="M1381.30957,417.79744c-6.33984,0-13.03613-3.12793-13.38477-3.29395-.47998-.22656-.69873-.79004-.49805-1.28125.09619-.23535,9.521-23.66601,2.30078-34.50586-7.19141-10.7998-29.28955-9.48242-29.51367-9.46973-.55078.02832-1.02734-.38086-1.06299-.93262-.03613-.55078.38086-1.02734.93164-1.06348.9541-.06348,23.47607-1.40527,31.31006,10.35644,7.04395,10.57715-.0127,30.86523-1.7583,35.46191,2.54932,1.06445,10.25146,3.92773,15.56152,2.1709.52441-.17187,1.08984.11133,1.26367.63477.17383.52441-.11035,1.08984-.63477,1.26367-1.4165.46973-2.95508.65918-4.51514.65918Z" style="fill: #282833;"/>
  <path d="M1393.36914,371.35018c-.2915,0-.58105-.12695-.77832-.37109-.34668-.42969-.28076-1.05762.14795-1.40527.15625-.12695,15.94824-12.58496,38.80859-2.30273.50391.22656.72852.81836.50195,1.32227-.22705.50293-.81836.72852-1.32227.50195-11.33984-5.10059-20.7124-4.28223-26.57764-2.69434-6.37256,1.72266-10.11572,4.69824-10.15283,4.72852-.18506.14844-.40674.2207-.62744.2207Z" style="fill: #282833;"/>
  <ellipse cx="1408.83153" cy="387.99091" rx="5.4075" ry="6.6435" style="fill: #210b09;"/>
  <ellipse cx="1352.90249" cy="389.38141" rx="5.4075" ry="6.6435" style="fill: #210b09;"/>
  <path d="M1365.28441,427.76022c.23999,1.37109.67505,2.92236,1.48755,4.28076.76831,1.28564,2.21899,1.99512,3.71265,1.89307,5.30762-.36475,20.50391-1.19385,33.98608.09375,2.4397-3.25635,3.72607-5.83398,3.72607-5.83398-16.36694-2.61328-34.98462-1.23584-42.91235-.43359Z" style="fill: #fff;"/>
</svg>